:SAMPLES-PER-SECOND 30
:FRAME-RANGE 1-663
:FULLY-SPECIFIED
:DEGREES
63
root  -59.2027 37.2353 112.213 1.69657 74.9989 -1.02963
RightUpLeg  5.27394 -4.39882 1.37884
RightLeg  16.0941 -0.214194 -0.157325
RightFoot  -19.206 -0.088427 0.604454
RightToes  -3.4386e-010 1.2921e-014 -6.02303e-014
Spine  -7.93903 -0.196336 4.10099
Spine1  11.0468 0.205908 -2.8896
HEad  24.5817 14.5665 3.70536
LeftShoulder1  0.888054 0.148426 -22.0366
LeftArm  -8.33016 17.4427 -50.323
LeftForeArm  33.5924 5.75071 -10.9333
LeftHand  -0.0247438 5.64466 1.8229
RightShoulder  1.89835 2.61008 26.0766
RightArm  -20.5338 20.2494 54.3462
RightForeArm  66.9243 -5.59171 4.53427
RightHand  0.246772 -7.01477 -18.5954
LeftUpLeg  -23.9558 -2.87997 -2.09697
LeftLeg  2.75155 11.6726 2.52474
LeftFoot  -1.08713 0.353701 -3.86942
LeftToes  -7.12384e-010 -7.51861e-011 -8.34901e-011
64
root  -57.9636 37.1218 112.537 1.86561 74.8319 -0.189663
RightUpLeg  7.06926 -2.92444 1.29434
RightLeg  18.1624 -0.810248 -0.51938
RightFoot  -19.7393 0.0232814 2.13761
RightToes  -3.4386e-010 1.2921e-014 -6.02303e-014
Spine  -8.47956 0.137664 3.36213
Spine1  11.9113 0.745564 -3.27489
HEad  24.0732 15.6417 4.58861
LeftShoulder1  0.872957 0.156264 -21.6013
LeftArm  -8.55719 17.7074 -50.5495
LeftForeArm  33.8344 6.61785 -10.8761
LeftHand  -0.0224291 5.73017 2.17189
RightShoulder  1.86736 2.40999 26.678
RightArm  -20.3085 18.9417 53.779
RightForeArm  67.3044 -5.62895 4.84645
RightHand  0.191902 -6.68973 -18.3493
LeftUpLeg  -23.9096 -3.5151 -2.52163
LeftLeg  6.74519 11.7577 3.54354
LeftFoot  2.41744 0.103915 -0.982901
LeftToes  -7.12384e-010 -7.51861e-011 -8.34901e-011
65
root  -56.717 37.0375 112.81 4.24028 74.3619 2.93247
RightUpLeg  7.47311 -1.12022 0.337235
RightLeg  22.8171 -0.545212 -0.469042
RightFoot  -19.7393 0.222007 4.84432
RightToes  -3.4386e-010 1.2921e-014 -6.02303e-014
Spine  -8.17518 0.267811 2.12442
Spine1  11.6188 1.06503 -3.88071
HEad  24.3981 17.3815 5.14722
LeftShoulder1  0.680424 0.890912 -22.0876
LeftArm  -8.14308 18.298 -49.6522
LeftForeArm  33.3266 6.57132 -10.9941
LeftHand  -0.0231961 5.63131 1.7909
RightShoulder  1.96215 2.56391 27.4718
RightArm  -20.4918 17.2171 53.1512
RightForeArm  68.5654 -5.60121 4.96884
RightHand  0.0946714 -6.07836 -18.1641
LeftUpLeg  -23.6493 -5.66953 -3.13751
LeftLeg  10.9444 13.7189 5.04715
LeftFoot  4.5246 -0.0622198 0.249458
LeftToes  -7.12384e-010 -7.51861e-011 -8.34901e-011
66
root  -55.4786 36.9725 113.038 6.88348 75.0727 6.01566
RightUpLeg  6.00389 -0.465894 -0.789453
RightLeg  30.2683 0.815544 0.27907
RightFoot  -18.2152 0.374848 8.28862
RightToes  -3.4386e-010 1.2921e-014 -6.02303e-014
Spine  -8.50825 0.317043 0.982113
Spine1  11.914 1.14753 -3.97397
HEad  24.1849 17.9852 5.49342
LeftShoulder1  0.761314 0.598479 -22.029
LeftArm  -8.96219 18.3177 -49.7734
LeftForeArm  33.6077 6.68302 -10.6736
LeftHand  -0.0230166 5.67184 1.73016
RightShoulder  1.95989 2.49442 27.845
RightArm  -21.8948 14.9697 52.4511
RightForeArm  68.8486 -5.49433 4.38688
RightHand  0.088036 -6.03856 -18.0963
LeftUpLeg  -23.5093 -7.19635 -3.77241
LeftLeg  15.1619 14.1739 5.29898
LeftFoot  3.32211 -0.140581 0.936205
LeftToes  -7.12384e-010 -7.51861e-011 -8.34901e-011
67
root  -54.3036 36.9742 113.227 9.79308 76.0234 9.26769
RightUpLeg  2.87575 -2.34522 -3.01558
RightLeg  39.5798 3.81969 3.10961
RightFoot  -13.5864 0.137833 11.7192
RightToes  -3.4386e-010 1.2921e-014 -6.02303e-014
Spine  -8.60292 0.278825 -0.020142
Spine1  12.1045 1.08521 -4.27401
HEad  24.5422 18.4885 5.80378
LeftShoulder1  0.798846 0.458128 -21.9572
LeftArm  -9.16521 17.8285 -50.188
LeftForeArm  33.8212 6.89402 -10.5999
LeftHand  -0.0239152 5.74869 1.66256
RightShoulder  1.85009 2.21705 27.5344
RightArm  -24.2711 11.7494 52.7108
RightForeArm  70.156 -5.24722 3.20445
RightHand  0.11505 -6.23698 -17.6707
LeftUpLeg  -22.5417 -8.43125 -5.03044
LeftLeg  17.5101 14.1025 5.76851
LeftFoot  1.94386 -0.369247 3.06907
LeftToes  -7.12384e-010 -7.51861e-011 -8.34901e-011
68
root  -53.1995 37.0017 113.39 12.0151 76.0676 11.7414
RightUpLeg  -2.32517 -3.08464 -4.89592
RightLeg  50.575 4.28954 5.23045
RightFoot  -5.95303 -0.641543 12.7199
RightToes  -3.4386e-010 1.2921e-014 -6.02303e-014
Spine  -8.14181 0.527904 -0.637317
Spine1  11.6074 1.32176 -4.77772
HEad  24.5446 19.3082 6.06937
LeftShoulder1  0.75828 0.612017 -22.0594
LeftArm  -8.75833 17.2528 -50.4111
LeftForeArm  34.0197 6.37499 -10.7553
LeftHand  -0.0225634 5.79629 1.94919
RightShoulder  1.82372 2.15433 27.4304
RightArm  -25.7217 8.92487 52.3489
RightForeArm  70.7003 -5.12673 2.61172
RightHand  0.101848 -6.16615 -17.3523
LeftUpLeg  -21.2913 -8.32919 -6.27503
LeftLeg  19.2148 13.8157 6.16384
LeftFoot  -0.117773 -0.397787 4.05417
LeftToes  -7.12384e-010 -7.51861e-011 -8.34901e-011
69
root  -52.1107 37.0659 113.597 15.3188 76.4125 15.4554
RightUpLeg  -7.86293 -3.27173 -6.36077
RightLeg  60.1532 3.02296 5.21177
RightFoot  4.05003 -1.87779 14.0386
RightToes  -3.4386e-010 1.2921e-014 -6.02303e-014
Spine  -7.52164 0.412155 -1.9793
Spine1  11.1041 1.16307 -4.72183
HEad  24.079 20.1269 6.37445
LeftShoulder1  0.741044 0.671367 -22.038
LeftArm  -7.61378 16.1603 -50.5181
LeftForeArm  32.981 5.97812 -11.1929
LeftHand  -0.0220781 5.74029 2.22355
RightShoulder  1.71946 1.74623 28.0742
RightArm  -26.3317 7.18624 51.5894
RightForeArm  70.987 -5.08411 2.42494
RightHand  0.0889659 -6.08 -17.332
LeftUpLeg  -19.3236 -7.10382 -7.72437
LeftLeg  19.7674 12.2985 5.7322
LeftFoot  -2.41922 -0.321186 4.30236
LeftToes  -7.12384e-010 -7.51861e-011 -8.34901e-011
70
root  -51.0614 37.1201 113.821 17.9037 76.82 18.3647
RightUpLeg  -12.8919 -3.42009 -7.04308
RightLeg  67.0191 1.59843 3.48687
RightFoot  9.37413 -1.99068 11.2143
RightToes  -3.4386e-010 1.2921e-014 -6.02303e-014
Spine  -6.94375 0.0948017 -3.12531
Spine1  10.7912 0.740514 -4.73866
HEad  23.4001 21.0294 6.35505
LeftShoulder1  0.725286 0.75837 -22.4009
LeftArm  -7.1077 15.0131 -50.3267
LeftForeArm  32.762 5.25577 -11.3144
LeftHand  -0.0245029 5.53882 2.39231
RightShoulder  1.70464 1.6528 28.425
RightArm  -27.0903 5.56851 51.188
RightForeArm  71.6162 -5.00529 2.10404
RightHand  0.162234 -6.55239 -17.6382
LeftUpLeg  -17.4967 -5.80042 -8.80414
LeftLeg  20.4131 10.8511 5.39678
LeftFoot  -4.66364 -0.206029 4.01234
LeftToes  -7.12384e-010 -7.51861e-011 -8.34901e-011
71
root  -50.0493 37.1372 114.044 19.7086 77.358 20.3455
RightUpLeg  -16.9654 -3.46325 -7.37512
RightLeg  71.0141 0.701668 1.44542
RightFoot  5.19262 -1.30328 9.19713
RightToes  -3.4386e-010 1.2921e-014 -6.02303e-014
Spine  -6.39829 -0.200569 -3.86224
Spine1  10.4794 0.354295 -5.02384
HEad  23.3053 21.3131 6.28102
LeftShoulder1  0.829575 0.387607 -22.3556
LeftArm  -6.8342 13.497 -50.5729
LeftForeArm  33.1092 5.20167 -11.3696
LeftHand  -0.0251108 5.45139 2.85619
RightShoulder  1.66788 1.50535 28.7184
RightArm  -27.91 3.95547 50.7851
RightForeArm  71.9297 -4.93177 1.74179
RightHand  0.177854 -6.67265 -17.439
LeftUpLeg  -15.8805 -4.59897 -9.41736
LeftLeg  21.0959 9.19692 4.98144
LeftFoot  -7.04853 -0.0958738 3.68986
LeftToes  -7.12384e-010 -7.51861e-011 -8.34901e-011
72
root  -49.0231 37.2329 114.278 20.3663 78.3152 21.2051
RightUpLeg  -20.2306 -3.65433 -7.28022
RightLeg  71.4148 0.176372 -0.277676
RightFoot  2.16704 -0.936452 8.01961
RightToes  -3.4386e-010 1.2921e-014 -6.02303e-014
Spine  -5.86742 -0.705155 -4.33271
Spine1  10.0625 -0.303751 -4.7446
HEad  23.9434 20.9105 5.99645
LeftShoulder1  0.944715 -0.00876795 -22.4359
LeftArm  -6.29543 11.6055 -50.7539
LeftForeArm  33.3786 5.25874 -11.5388
LeftHand  -0.0255667 5.37903 2.83868
RightShoulder  1.55887 1.17659 28.8191
RightArm  -28.5012 2.46345 50.5993
RightForeArm  71.9743 -4.89135 1.51305
RightHand  0.162615 -6.59204 -17.1625
LeftUpLeg  -13.7903 -2.85214 -9.43022
LeftLeg  20.9828 7.06054 4.03746
LeftFoot  -8.98703 -0.0232347 3.76192
LeftToes  -7.12384e-010 -7.51861e-011 -8.34901e-011
73
root  -47.9814 37.3167 114.508 20.4404 79.3734 21.3474
RightUpLeg  -22.8718 -3.96527 -7.13627
RightLeg  68.8725 -0.138157 -1.13733
RightFoot  0.190997 -0.74819 7.41168
RightToes  -3.4386e-010 1.2921e-014 -6.02303e-014
Spine  -5.63241 -1.22605 -4.67765
Spine1  9.78823 -0.986064 -4.07916
HEad  24.8621 19.8176 5.30011
LeftShoulder1  1.09229 -0.501284 -22.6389
LeftArm  -5.7208 9.29521 -50.978
LeftForeArm  33.7808 5.70493 -11.7026
LeftHand  -0.0240192 5.3328 2.81517
RightShoulder  1.46554 0.900567 28.8716
RightArm  -28.8014 1.42187 50.102
RightForeArm  72.0301 -4.87244 1.41437
RightHand  0.156887 -6.58864 -16.7156
LeftUpLeg  -11.7823 -1.63968 -9.07298
LeftLeg  20.8413 5.01431 3.14227
LeftFoot  -10.7109 0.0429478 3.90303
LeftToes  -7.12384e-010 -7.51861e-011 -8.34901e-011
74
root  -46.9568 37.3291 114.749 21.083 80.1971 21.9812
RightUpLeg  -24.8837 -4.4278 -7.06513
RightLeg  64.0917 -0.765628 -2.29762
RightFoot  -2.70126 -0.460099 5.84081
RightToes  -3.4386e-010 1.2921e-014 -6.02303e-014
Spine  -5.40002 -1.72329 -5.18623
Spine1  9.3989 -1.58652 -3.38673
HEad  25.6932 18.0015 4.56407
LeftShoulder1  1.23714 -1.00497 -22.6499
LeftArm  -5.47832 7.23044 -51.3529
LeftForeArm  34.2736 5.80868 -11.7337
LeftHand  -0.0244324 5.41834 2.66694
RightShoulder  1.42727 0.776495 28.9906
RightArm  -28.8122 0.713706 49.4023
RightForeArm  71.8672 -4.88666 1.46009
RightHand  0.158578 -6.6358 -16.3014
LeftUpLeg  -10.0259 -1.04166 -8.87488
LeftLeg  20.9166 3.81855 2.79384
LeftFoot  -12.4059 0.115451 4.39463
LeftToes  -7.12384e-010 -7.51861e-011 -8.34901e-011
75
root  -45.935 37.3222 115.006 22.098 80.568 23.0222
RightUpLeg  -26.1502 -4.58617 -7.19978
RightLeg  57.1811 -1.64987 -3.18836
RightFoot  -5.75378 -0.31045 5.55381
RightToes  -3.4386e-010 1.2921e-014 -6.02303e-014
Spine  -4.99225 -2.11309 -5.67793
Spine1  8.92712 -1.92947 -3.03261
HEad  26.1664 15.9888 3.94196
LeftShoulder1  1.31794 -1.33575 -22.3289
LeftArm  -5.02231 4.93762 -51.6554
LeftForeArm  34.2506 5.92003 -11.8714
LeftHand  -0.0254392 5.56378 2.53
RightShoulder  1.35705 0.530495 29.4018
RightArm  -29.4937 0.832397 48.7894
RightForeArm  73.3384 -4.74499 0.971941
RightHand  0.132933 -6.52976 -15.3186
LeftUpLeg  -8.21742 -0.35136 -8.71282
LeftLeg  20.9438 2.96978 2.38015
LeftFoot  -13.8229 0.179987 4.4709
LeftToes  -7.12384e-010 -7.51861e-011 -8.34901e-011
76
root  -44.9267 37.3335 115.24 22.0722 80.657 22.9135
RightUpLeg  -26.6827 -4.31782 -7.19074
RightLeg  48.0008 -2.55891 -3.36336
RightFoot  -5.87226 -0.238573 4.15578
RightToes  -3.4386e-010 1.2921e-014 -6.02303e-014
Spine  -4.88229 -2.40584 -5.5335
Spine1  8.81118 -2.04409 -2.9128
HEad  26.7419 14.2395 3.33405
LeftShoulder1  1.43191 -1.74007 -22.3136
LeftArm  -4.49146 2.58802 -51.4536
LeftForeArm  34.2177 5.88012 -12.003
LeftHand  -0.0233782 5.43195 2.37572
RightShoulder  1.31927 0.407206 29.5564
RightArm  -29.9796 1.04605 48.5015
RightForeArm  73.1048 -4.69668 0.632168
RightHand  0.42686 -8.47139 -16.7733
LeftUpLeg  -6.33309 0.130517 -8.45257
LeftLeg  20.5051 2.65381 2.07831
LeftFoot  -14.9624 0.246183 4.93911
LeftToes  -7.12384e-010 -7.51861e-011 -8.34901e-011
77
root  -43.9396 37.3646 115.485 21.5404 80.5811 21.9758
RightUpLeg  -26.4437 -3.76637 -7.14836
RightLeg  36.6045 -2.67038 -2.37765
RightFoot  -3.96719 -0.308917 4.3714
RightToes  -3.4386e-010 1.2921e-014 -6.02303e-014
Spine  -5.00446 -2.81867 -5.07697
Spine1  8.88062 -2.22554 -2.9918
HEad  27.8435 13.2513 3.09421
LeftShoulder1  1.46132 -1.79969 -22.5735
LeftArm  -4.00151 0.186663 -50.7086
LeftForeArm  34.0642 5.78323 -12.1042
LeftHand  -0.0257057 5.47731 2.2564
RightShoulder  1.40038 0.653202 29.4065
RightArm  -30.3745 1.68191 48.6673
RightForeArm  73.9678 -4.60498 0.298816
RightHand  0.44775 -8.63711 -16.6782
LeftUpLeg  -4.65054 0.285264 -8.1943
LeftLeg  19.7028 2.78809 2.07135
LeftFoot  -15.8804 0.302442 5.21846
LeftToes  -7.12384e-010 -7.51861e-011 -8.34901e-011
